<?xml version="1.0" ?><!DOCTYPE svg  PUBLIC '-//W3C//DTD SVG 1.1//EN'  'http://www.w3.org/Graphics/SVG/1.1/DTD/svg11.dtd'><svg enable-background="new 0 0 512 512" height="512px" id="customer_x5F_live_x5F_chat_x5F_service" version="1.1" viewBox="0 0 512 512" width="512px" xml:space="preserve" xmlns="http://www.w3.org/2000/svg" xmlns:xlink="http://www.w3.org/1999/xlink"><g><path d="M192.075,144.144c-24.22,0-43.86,19.641-43.86,43.87c0,11.271,4.25,21.561,11.25,29.32   c5.561-12.471,18.07-21.16,32.61-21.16s27.05,8.689,32.62,21.16c7-7.76,11.25-18.05,11.25-29.32   C235.945,163.784,216.305,144.144,192.075,144.144z M192.076,189.414c-7.78,0-14.088-6.307-14.088-14.088   c0-7.78,6.308-14.088,14.088-14.088s14.088,6.308,14.088,14.088C206.164,183.107,199.856,189.414,192.076,189.414z"/><circle cx="319.928" cy="310.428" r="14.088"/><path d="M319.928,366.975c12.949,0,24.6-5.61,32.619-14.54c-5.57-12.47-18.08-21.16-32.619-21.16   c-14.541,0-27.051,8.69-32.61,21.16C295.337,361.364,306.977,366.975,319.928,366.975z"/><path d="M468.16,151.956h-72.094V27.045c0-10.371-8.416-18.787-18.787-18.787H134.904c-4.566,0-8.768,1.627-12.022,4.348   c-2.465,2.053-4.396,4.736-5.55,7.797c-0.789,2.064-1.215,4.299-1.215,6.643v262.533H43.84c-4.418,0-8,3.582-8,8v56.11   c0,4.418,3.582,8,8,8h72.277v123.267c0,10.371,8.416,18.787,18.787,18.787h242.375c10.371,0,18.787-8.416,18.787-18.787V224.066   h72.094c4.418,0,8-3.582,8-8v-56.11C476.16,155.538,472.578,151.956,468.16,151.956z M280.07,24.165h16c2.209,0,4,1.791,4,4   s-1.791,4-4,4h-16c-2.209,0-4-1.791-4-4S277.861,24.165,280.07,24.165z M216.07,24.165h40c2.209,0,4,1.791,4,4s-1.791,4-4,4h-40   c-2.209,0-4-1.791-4-4S213.861,24.165,216.07,24.165z M56.059,305.375h102.525c2.209,0,4,1.791,4,4s-1.791,4-4,4H56.059   c-2.209,0-4-1.791-4-4S53.85,305.375,56.059,305.375z M162.584,325.633c0,2.209-1.791,4-4,4H94.911c-2.209,0-4-1.791-4-4   s1.791-4,4-4h63.673C160.793,321.633,162.584,323.424,162.584,325.633z M56.059,321.633h17.585c2.209,0,4,1.791,4,4s-1.791,4-4,4   H56.059c-2.209,0-4-1.791-4-4S53.85,321.633,56.059,321.633z M56.059,345.891c-2.209,0-4-1.791-4-4s1.791-4,4-4h102.525   c2.209,0,4,1.791,4,4s-1.791,4-4,4H56.059z M256.056,484.229c-5.365,0-9.716-4.35-9.716-9.716c0-5.365,4.351-9.715,9.716-9.715   c5.366,0,9.716,4.35,9.716,9.715C265.771,479.879,261.422,484.229,256.056,484.229z M380.075,441.696c0,3.569-2.9,6.47-6.47,6.47   H138.545c-3.58,0-6.47-2.9-6.47-6.47v-80.008h95.908c4.418,0,8-3.582,8-8v-9.985c0-2.858,1.524-5.499,4-6.928l14.937-8.623   c2.258-1.305,2.219-4.578-0.072-5.826l-14.693-8.01c-2.571-1.401-4.171-4.096-4.171-7.023v-9.715c0-4.418-3.582-8-8-8h-95.908   V62.636c0-3.569,2.89-6.47,6.47-6.47h235.061c3.569,0,6.47,2.9,6.47,6.47v89.32h-96.059c-4.418,0-8,3.582-8,8v9.715   c0,2.928-1.6,5.622-4.171,7.024l-14.693,8.01c-2.29,1.248-2.33,4.521-0.072,5.825l14.937,8.623c2.476,1.429,4,4.07,4,6.929v9.984   c0,4.418,3.582,8,8,8h96.059V441.696z M182.428,326.407c1.648-1.467,4.177-1.321,5.647,0.329l4.752,5.339l15.72-21.846   c1.291-1.795,3.79-2.202,5.583-0.911c1.794,1.291,2.201,3.79,0.911,5.583L196.405,340.8c-0.709,0.985-1.828,1.596-3.04,1.659   c-0.069,0.003-0.139,0.005-0.207,0.005c-1.139,0-2.227-0.485-2.988-1.341l-8.071-9.068   C180.63,330.404,180.777,327.876,182.428,326.407z M315.488,193.195v1.592c0,2.209-1.791,4-4,4s-4-1.791-4-4v-1.592   c0-3.701,2.021-7.097,5.273-8.861l3.509-1.905c1.616-0.877,2.62-2.564,2.62-4.403v-1.248c0-2.763-2.248-5.011-5.011-5.011h-2.128   c-2.763,0-5.01,2.248-5.01,5.011c0,2.209-1.791,4-4,4s-4-1.791-4-4c0-7.174,5.836-13.011,13.01-13.011h2.128   c7.174,0,13.011,5.837,13.011,13.011v1.248c0,4.775-2.607,9.157-6.804,11.435l-3.51,1.905   C315.905,191.729,315.488,192.431,315.488,193.195z M315.608,207.392v0.978c0,2.209-1.791,4-4,4s-4-1.791-4-4v-0.978   c0-2.209,1.791-4,4-4S315.608,205.183,315.608,207.392z M455.941,208.27H353.416c-2.209,0-4-1.791-4-4s1.791-4,4-4h102.525   c2.209,0,4,1.791,4,4S458.15,208.27,455.941,208.27z M349.416,188.011c0-2.209,1.791-4,4-4h63.673c2.209,0,4,1.791,4,4   s-1.791,4-4,4h-63.673C351.207,192.011,349.416,190.22,349.416,188.011z M455.941,192.011h-17.585c-2.209,0-4-1.791-4-4   s1.791-4,4-4h17.585c2.209,0,4,1.791,4,4S458.15,192.011,455.941,192.011z M455.941,175.753H353.416c-2.209,0-4-1.791-4-4   s1.791-4,4-4h102.525c2.209,0,4,1.791,4,4S458.15,175.753,455.941,175.753z"/><circle cx="256.383" cy="93.549" r="6.413"/><circle cx="224.695" cy="93.549" r="6.413"/><circle cx="288.07" cy="93.549" r="6.413"/><circle cx="256.383" cy="417.307" r="6.414"/><circle cx="224.695" cy="417.307" r="6.414"/><circle cx="288.07" cy="417.307" r="6.414"/></g></svg>