<?xml version="1.0" ?><svg height="256" viewBox="0 0 256 256" width="256" xmlns="http://www.w3.org/2000/svg"><title/><g id="meditation-yoga-retreat"><g><path d="M230.881,177.81c-1.99-1.76-5.47-.77-9.89.47a38.9,38.9,0,0,1-6.15,1.41c-4.05.39-6.2,2.09-7.3,3.54-3.11-1.57-9.81-5.35-12.68-9.95-3.96-6.34-10.77-12.25-12.05-13.32-4.41-6.11-8.56-14.26-12.23-21.46-3.15-6.18-6.12-12.01-8.8-15.65a22.557,22.557,0,0,0-13.56-8.83c-.23-.05-.46-.1-.69-.14l-.21-.03a20.72,20.72,0,0,1-6.33-1.87c-2.55-1.35-3.99-3.49-3.99-7.18v-2.4a25.9,25.9,0,0,0,8.29-3.97A19.675,19.675,0,0,0,162.26,108h6.69a2.006,2.006,0,0,0,2-2V88.14a26.412,26.412,0,0,0-5.82-16.58,6.292,6.292,0,0,0,.92-2.25l.45-2.23a6.466,6.466,0,0,0-1.34-5.37,6.325,6.325,0,0,0-2.05-1.64l1.64-10.42A36.021,36.021,0,0,0,129.2,8h-2.96A36.021,36.021,0,0,0,90.69,49.65l1.63,10.42a6.317,6.317,0,0,0-2.04,1.64,6.4,6.4,0,0,0-1.34,5.37l.44,2.23a6.473,6.473,0,0,0,6.33,5.2h.23c1.76,12.51,10.8,25.06,23.06,28.04v2.25c0,3.68-1.44,5.83-4,7.18a21.285,21.285,0,0,1-6.41,1.88l-.11.02c-.23.04-.47.09-.7.14a22.544,22.544,0,0,0-13.56,8.83c-2.68,3.64-5.65,9.47-8.8,15.65-3.67,7.2-7.82,15.35-12.23,21.46-1.28,1.07-8.09,6.98-12.05,13.32-2.87,4.6-9.57,8.38-12.68,9.95-1.1-1.45-3.25-3.15-7.3-3.54a38.9,38.9,0,0,1-6.15-1.41c-4.42-1.24-7.9-2.23-9.89-.47a3.561,3.561,0,0,0-1.06,3.4c.6,3.95,4.57,11.43,10.48,15.2a15.02,15.02,0,0,0,12.65,1.87c1.06-.31,2.15-.69,3.27-1.13a15.243,15.243,0,0,0-.81,3.51,20.269,20.269,0,0,0,4.47,15.72c4.56,5.54,12.3,9.52,22.34,12.51-4.59.52-8.65,1.69-9.92,4.07a4,4,0,0,0,.39,4.28c.34.51.68,1.04,1.02,1.57,2.63,4.1,5.9,9.19,11.96,9.19a55.533,55.533,0,0,0,10.41-.74c1.4-.18,3.15-.41,5.4-.69a41.417,41.417,0,0,0,19.31-7.41l1.69-1.23c3.84-.31,7.6-.62,11.27-.96,3.7.34,7.47.65,11.29.96l1.62,1.17a41.314,41.314,0,0,0,19.39,7.47c2.25.29,4.01.51,5.41.69a55.225,55.225,0,0,0,10.39.74c6.05,0,9.32-5.09,11.95-9.18.34-.54.68-1.07,1.03-1.58a3.985,3.985,0,0,0,.39-4.27c-1.27-2.37-5.3-3.55-9.86-4.08,15.5-4.57,28.51-12.48,26.75-28.23a14.75,14.75,0,0,0-.82-3.51c1.12.44,2.22.82,3.28,1.13a15.02,15.02,0,0,0,12.65-1.87c5.91-3.77,9.88-11.25,10.48-15.2A3.561,3.561,0,0,0,230.881,177.81Zm-74.93-30.35c4.21,7.61,9.38,15.51,11.36,18.52,1.87,2.85,4.86,8.76,4.89,8.82a1.905,1.905,0,0,0,.35.49,106.882,106.882,0,0,0,13.58,10.92c-10.92-1.05-24.48.85-36.12,2.98a63.877,63.877,0,0,1,1.66-12.72c.64-2.8,1.39-5.36,2.09-7.81,1.85-6.42,3.48-12.05,2.6-18.78C156.26,149.09,156.12,148.28,155.95,147.46Zm-17.09,43.9A94.967,94.967,0,0,1,128,193.24h-.01c-1.54,0-5.85-.87-10.85-1.88-2.22-.45-4.61-.93-7.14-1.41a66.639,66.639,0,0,0-1.27-12.05h38.54A66.639,66.639,0,0,0,146,189.95C143.47,190.43,141.08,190.91,138.86,191.36ZM99.64,149.88c-.88,6.73.75,12.36,2.6,18.78.7,2.45,1.45,5.01,2.09,7.81a63.877,63.877,0,0,1,1.66,12.72c-11.64-2.13-25.2-4.03-36.12-2.98a106.882,106.882,0,0,0,13.58-10.92,1.905,1.905,0,0,0,.35-.49c.03-.06,3.02-5.97,4.89-8.82,1.98-3.01,7.15-10.91,11.36-18.52C99.88,148.28,99.74,149.09,99.64,149.88ZM162.58,66.3l-.45,2.23a2.442,2.442,0,0,1-2.34,1.97c.01-.12.01-.24.01-.36V63.35h.37a2.475,2.475,0,0,1,2.41,2.95ZM93.3,68.53l-.44-2.23a2.462,2.462,0,0,1,2.41-2.95h.36v6.79c0,.12,0,.24.01.36A2.451,2.451,0,0,1,93.3,68.53Zm6.34,1.95c-.01-.11-.01-.23-.01-.34V58.61a9.1,9.1,0,0,1,6.24-8.72,21.82,21.82,0,0,0,12.48-9.73c3.7,5.79,13.33,16.23,35.13,17.49a2.458,2.458,0,0,1,2.32,2.46V70.14c0,.11,0,.23-.01.34a32.468,32.468,0,0,1-11.85,23.91,20.989,20.989,0,0,1-13.02,4.82h-6.4a18.215,18.215,0,0,1-2.97-.24C109.11,96.99,99.8,82.87,99.64,70.48ZM123,104.8v-1.64c.5.03,1.01.05,1.52.05h6.4c.7,0,1.4-.03,2.08-.09v1.68c0,5.17,2.23,8.21,5,10.06v6.97a10,10,0,1,1-20,0v-6.97C120.77,113.01,123,109.97,123,104.8ZM46.06,194.44a10.966,10.966,0,0,1-9.37-1.41,22.21,22.21,0,0,1-8.63-12.19,33.884,33.884,0,0,1,5.86,1.29,42.052,42.052,0,0,0,6.86,1.54c4.18.4,4.89,2.6,4.9,2.63a1.992,1.992,0,0,0,2.75,1.38c.47-.2,11.66-5.16,16.1-12.28,3.94-6.31,11.33-12.47,11.41-12.53a2.894,2.894,0,0,0,.34-.36c4.65-6.38,8.93-14.79,12.7-22.2,3.07-6.02,5.97-11.72,8.46-15.09a18.778,18.778,0,0,1,9-6.7c.13,4.16.11,12.99-1.92,20.73a2.893,2.893,0,0,0-1.43-.96,2.987,2.987,0,0,0-3.59,1.57c-4.21,8.74-11.7,20.17-14.16,23.93-1.77,2.7-4.33,7.69-4.97,8.93-3.99,4.04-13.76,11.49-23.11,16.7A56.785,56.785,0,0,1,46.06,194.44Zm66.55,41.53a38.212,38.212,0,0,1-17.39,6.63c-2.26.29-4.01.51-5.41.69a51.9,51.9,0,0,1-9.9.71c-3.87,0-6.27-3.74-8.59-7.35-.36-.56-.71-1.11-1.06-1.63a1.14,1.14,0,0,1-.14-.24c.65-.77,4.82-2.29,14.04-2.29,1.21,0,2.33.04,3.42.08a39.081,39.081,0,0,0,4.84,0c6.45,1.16,13.44,2.11,20.83,2.94Zm73.27-1.19c-.03.05-.07.13-.14.24-.35.53-.71,1.08-1.07,1.64-2.32,3.61-4.71,7.34-8.58,7.34a51.6,51.6,0,0,1-9.88-.71c-1.41-.18-3.16-.4-5.43-.68a38.008,38.008,0,0,1-17.46-6.69l-2.15-1.56a2.068,2.068,0,0,0-1.01-.37c-2.43-.2-4.85-.4-7.24-.6a33.122,33.122,0,0,0,1.94-9.07q1.005.645,2.04,1.32a1.766,1.766,0,0,0,.48.23l2.74.88a1.981,1.981,0,0,0,1.72-.24c2.8-1.86,9.09-4.05,12.85.95A11.511,11.511,0,0,0,163,232.5a1.721,1.721,0,0,0,.39.04,36.574,36.574,0,0,0,5.03.03c1.06-.04,2.2-.08,3.43-.08C181.06,232.49,185.23,234.01,185.88,234.78Zm33.43-41.75a10.966,10.966,0,0,1-9.37,1.41,56.785,56.785,0,0,1-11.2-5.02c-9.35-5.21-19.12-12.66-23.11-16.7-.64-1.24-3.2-6.23-4.97-8.93-2.46-3.76-9.95-15.19-14.16-23.93a2.987,2.987,0,0,0-3.59-1.57,2.893,2.893,0,0,0-1.43.96c-2.03-7.74-2.05-16.57-1.92-20.73a18.778,18.778,0,0,1,9,6.7c2.49,3.37,5.39,9.07,8.46,15.09,3.77,7.41,8.05,15.82,12.7,22.2a2.894,2.894,0,0,0,.34.36c.08.06,7.47,6.22,11.41,12.53,4.44,7.12,15.63,12.08,16.1,12.28a1.958,1.958,0,0,0,2.74-1.32c.02-.09.73-2.29,4.91-2.69a42.052,42.052,0,0,0,6.86-1.54,31.241,31.241,0,0,1,5.84-1.29h.02A22.21,22.21,0,0,1,219.311,193.03Z"/><path d="M135.28,71.58a18.2,18.2,0,0,0,6.62,1.36,10.257,10.257,0,0,0,6.01-1.64,2,2,0,0,0,.36-2.76,2.023,2.023,0,0,0-2.78-.43c-.12.09-2.94,2.01-8.77-.26a2,2,0,0,0-1.44,3.73Z"/><path d="M121.86,68.99a1.994,1.994,0,0,0-2.58-1.14c-5.77,2.24-8.59.39-8.76.27a2,2,0,0,0-2.43,3.18,10.257,10.257,0,0,0,6.01,1.64,18.2,18.2,0,0,0,6.62-1.36A2,2,0,0,0,121.86,68.99Z"/></g></g></svg>