<?xml version="1.0" ?><svg id="ART" viewBox="0 0 150 150" xmlns="http://www.w3.org/2000/svg"><defs><style>.cls-1{fill:#b7b4b3;stroke-width:4px;}.cls-1,.cls-2,.cls-3,.cls-4{stroke:#000;stroke-miterlimit:10;}.cls-2{fill:#7a5342;}.cls-2,.cls-4{stroke-linecap:round;}.cls-2,.cls-3,.cls-4{stroke-width:2px;}.cls-3{fill:#c9c9c9;}.cls-4{fill:#4c3e38;}.cls-5{fill:#9b9998;}</style></defs><title/><path class="cls-1" d="M139.05,110.65c-9.55,21-48.19,33.45-64.05,33.45s-54.5-12.45-64.05-33.45C3.16,93.55,22.89,68.57,22.89,58a52.11,52.11,0,1,1,104.23,0C127.11,68.57,146.84,93.55,139.05,110.65Z"
    id="_Path_"/><path class="cls-2" d="M94.56,96.75c-9.84-4.34-18.92-8.41-21.27-12.06C70.94,88.33,61.85,92.41,52,96.75c.68.76,9.52,14.34,21.27,14.35h0C85,111.09,93.87,97.5,94.56,96.75Z"/><ellipse class="cls-3" cx="112.42" cy="76.02" rx="6.06" ry="10.78"/><ellipse class="cls-3" cx="37.58" cy="76.02" rx="6.06" ry="10.78"/><path class="cls-4" d="M94.52,96.08c-9.82,3.9-18.89,7.15-21.23,10.43C70.95,103.22,61.87,100,52,96.08c.68-.68,9.5-13.32,21.23-13.33h0C85,82.76,93.84,95.4,94.52,96.08Z"/><ellipse cx="111.42" cy="77.02" rx="4.8" ry="8.54"/><ellipse cx="38.58" cy="77.02" rx="4.8" ry="8.54"/><path class="cls-5" d="M138.72,104.26a18,18,0,0,1-1.49,5.56c-9,19.71-45.9,32.28-62.23,32.28s-53.27-12.57-62.23-32.28a18,18,0,0,1-1.49-5.56c15.91,11.6,38.57,18.85,63.72,18.85S122.81,115.86,138.72,104.26Z"/></svg>