<?xml version="1.0" ?><!DOCTYPE svg  PUBLIC '-//W3C//DTD SVG 1.1//EN'  'http://www.w3.org/Graphics/SVG/1.1/DTD/svg11.dtd'><svg height="512px" style="enable-background:new 0 0 512 512;" version="1.1" viewBox="0 0 512 512" width="512px" xml:space="preserve" xmlns="http://www.w3.org/2000/svg" xmlns:xlink="http://www.w3.org/1999/xlink"><g id="_x32_77_x2C__todo_x2C__task_x2C__list_x2C__check_x2C__time"><g><path d="M155.241,200.136h-35.787v35.786h35.787v-15.709l-13.75,7.946    c-1.681,0.978-3.85,0.521-4.952-1.1l-7.763-11.093c-1.19-1.682-0.762-4.004,0.919-5.196c1.681-1.161,4.032-0.765,5.194,0.917    l5.805,8.282l14.547-8.404V200.136z M155.241,282.129h-35.787v35.787h35.787V282.129z M155.241,364.093h-35.787v35.786h35.787    v-19.986l-13.75,7.946c-1.681,0.946-3.85,0.489-4.952-1.101l-7.763-11.094c-1.19-1.681-0.762-4.033,0.919-5.195    c1.681-1.191,4.032-0.764,5.194,0.917l5.805,8.282l14.547-8.404V364.093z M393.645,263.977c2.323,0,4.433,0.947,5.928,2.445    l0.277,0.305c1.375,1.498,2.2,3.484,2.2,5.654c0,2.291-0.948,4.4-2.478,5.898c-1.527,1.527-3.604,2.475-5.928,2.475    c-2.292,0-4.4-0.916-5.899-2.445c-1.559-1.558-2.506-3.637-2.506-5.928c0-2.322,0.947-4.401,2.478-5.929    C389.244,264.924,391.353,263.977,393.645,263.977z M468.793,339.094c0,2.323-0.947,4.401-2.474,5.93    c-1.499,1.527-3.608,2.476-5.932,2.476c-2.291,0-4.4-0.948-5.927-2.445c-1.53-1.528-2.479-3.637-2.479-5.96    c0-2.322,0.948-4.4,2.479-5.929l0.305-0.274c1.467-1.346,3.453-2.17,5.622-2.17c2.323,0,4.433,0.947,5.932,2.444    C467.846,334.693,468.793,336.802,468.793,339.094z M393.645,414.242c-2.292,0-4.4-0.947-5.899-2.475    c-1.559-1.528-2.506-3.637-2.506-5.93c0-2.291,0.947-4.399,2.478-5.897c1.527-1.558,3.636-2.506,5.928-2.506    c2.323,0,4.4,0.948,5.928,2.476c1.529,1.528,2.478,3.637,2.478,5.928c0,2.323-0.948,4.401-2.478,5.93    C398.045,413.295,395.968,414.242,393.645,414.242z M318.527,339.094c0-2.322,0.947-4.4,2.445-5.929l0.306-0.274    c1.495-1.346,3.481-2.17,5.622-2.17c2.324,0,4.433,0.947,5.959,2.444c1.499,1.528,2.447,3.637,2.447,5.929    c0,2.323-0.948,4.401-2.447,5.93c-1.526,1.527-3.635,2.476-5.959,2.476c-2.291,0-4.4-0.948-5.899-2.445    C319.475,343.525,318.527,341.417,318.527,339.094z M450.793,281.977c-11.553-11.582-26.619-19.65-43.427-22.523h-0.122    l-0.092-0.03l-0.091-0.03h-0.092h-0.031l-0.092-0.03h-0.091l-0.123-0.03h-0.091l-0.123-0.031h-0.091l-0.092-0.031h-0.123    l-0.091-0.03h-0.063h-0.027l-0.123-0.03h-0.092l-0.123-0.03h-0.091l-0.091-0.03h-0.123l-0.092-0.031h-0.122l-0.092-0.031h-0.031    h-0.06l-0.123-0.03h-0.092l-0.122-0.03h-0.092l-0.122-0.03h-0.092l-0.091-0.03h-0.123l-0.092-0.031l0,0h-0.122h-0.092l-0.123-0.03    h-0.091l-0.123-0.03h-0.091h-0.092l-0.122-0.03h-0.092l-0.063-0.03h-0.06h-0.091l-0.123-0.031h-0.091h-0.123l-0.091-0.031h-0.123    h-0.092l-0.123-0.03h-0.091h-0.031h-0.06l-0.123-0.03h-0.092h-0.122l-0.092-0.03h-0.123h-0.091l-0.123-0.03h-0.091h-0.091h-0.032    l-0.091-0.031h-0.123h-0.092l-0.123-0.03h-0.091h-0.122l-0.123-0.03H400h-0.092h-0.031h-0.091h-0.12l-0.094-0.031h-0.119h-0.096    l-0.119-0.029h-0.095h-0.119h-0.091h-0.096l-0.027-0.031h-0.092h-0.123h-0.091h-0.122l-0.123-0.031h-0.092h-0.214h-0.123H397.8    h-0.06l-0.246-0.03h-0.091h-0.123h-0.091h-0.123l-0.092-0.03h-0.123h-0.091h-0.028h-0.094h-0.12h-0.095h-0.119h-0.123    l-0.092-0.031h-0.122h-0.091h-0.123h-0.031h-0.092h-0.092h-0.123h-0.091h-0.122h-0.123l-0.092-0.029h-0.123h-0.091h-0.091h-0.032    h-0.119h-0.095h-0.119h-0.123h-0.092h-0.122h-0.123h-0.091h-0.123h-0.215h-0.122h-0.091l0,0h-0.123h-0.092h-0.031h-0.092h-0.119    l0,0h-0.123h-0.091l0,0h-0.123h-0.091l0,0l-0.123,0.029h-0.092h-0.031h-0.091h-0.091h-0.032h-0.123h-0.06h-0.031h-0.123h-0.092    l0,0h-0.122h-0.091h-0.032l-0.091,0.031h-0.092h-0.031h-0.092h-0.091h-0.032h-0.091h-0.091h-0.028h-0.123h-0.063h-0.027    l-0.123,0.03h-0.063h-0.028h-0.122h-0.063h-0.027h-0.123h-0.092h-0.031l-0.092,0.03h-0.091h-0.032h-0.091h-0.091h-0.031h-0.092    h-0.092h-0.031l-0.092,0.031h-0.091h-0.031h-0.091h-0.092h-0.031h-0.123l-0.06,0.031h-0.032h-0.123h-0.059h-0.032h-0.122    l-0.061,0.029h-0.031h-0.119h-0.063h-0.031l-0.12,0.031h-0.063h-0.031h-0.119h-0.064h-0.031h-0.119l-0.063,0.03h-0.028h-0.123    h-0.063h-0.027l-0.123,0.03h-0.063h-0.028h-0.186l-0.028,0.031H386.4h-0.123l0,0l-0.213,0.03h-0.029h-0.091h-0.091h-0.031    l-0.092,0.03h-0.092h-0.031l-0.182,0.03l0,0h-0.215l-0.031,0.03h-0.183h-0.032l-0.182,0.031h-0.031h-0.092l-0.092,0.031l0,0    h-0.123h-0.091v0.03h-0.122h-0.092l0,0l-0.123,0.03h-0.091l0,0l-0.123,0.03h-0.091l0,0h-0.123l-0.092,0.03l0,0h-0.123    l-0.091,0.031l0,0h-0.122l-0.092,0.03l0,0h-0.123l-0.091,0.03l0,0h-0.091h-0.123v0.03h-0.092h-0.123l0,0l-0.091,0.03l-0.123,0.031    l0,0h-0.091H382v0.031h-0.092h-0.091l-0.032,0.03h-0.091h-0.091l-0.031,0.03h-0.092h-0.092l-0.031,0.03h-0.091l-0.091,0.03h-0.032    l-0.183,0.031l0,0h-0.092l-0.213,0.031l-0.123,0.03l0,0h-0.092l-0.123,0.03l0,0l-0.428,0.061l-0.092,0.031l-0.059,0.03h-0.092    h-0.092l0,0l-0.979,0.184l-0.214,0.062l-0.674,0.121l-0.333,0.063l-0.552,0.121l-0.429,0.092c-2.596,0.55-5.193,1.253-7.699,2.078    l-0.52,0.152l-0.428,0.153c-1.253,0.429-2.479,0.886-3.699,1.376H364c-10.389,4.094-19.71,10.299-27.473,18.061    c-5.713,5.715-10.574,12.255-14.396,19.467l0,0c-1.832,3.453-3.39,7.06-4.706,10.819l-0.15,0.366l-0.183,0.551l-0.614,1.895    l-0.028,0.061l-0.246,0.825v0.062l-0.245,0.794l-0.06,0.153l-0.183,0.703l-0.063,0.274l-0.15,0.581l-0.123,0.366l-0.123,0.489    l-0.123,0.489l-0.213,0.978l-0.061,0.275l-0.154,0.703l-0.06,0.152l-0.154,0.826v0.061l-0.183,0.854l-0.028,0.093l-0.122,0.795    l-0.063,0.184l-0.123,0.702l-0.028,0.306l-0.091,0.58l-0.063,0.428l-0.092,0.459l-0.059,0.52l-0.063,0.366l-0.091,0.673    l-0.032,0.244l-0.091,0.764v0.123l-0.092,0.886v0.03l-0.091,0.887v0.092l-0.091,0.824v0.215l-0.061,0.703l-0.031,0.305    l-0.031,0.611v0.429l-0.032,0.488l0,0l-0.028,0.917l-0.031,0.672v0.245l-0.031,0.795v0.122v0.916v1.009v0.03l0.031,0.948v0.122    l0.031,0.855v0.153l0.028,0.825l0.032,0.213l0.031,0.765v0.274l0.06,0.703l0.032,0.337l0.059,0.642l0.032,0.366l0.031,0.612    l0.06,0.427l0.063,0.52l0.028,0.489l0.063,0.488l0.061,0.52l0.063,0.429l0.092,0.581l0.059,0.366l0.092,0.642l0.031,0.305    l0.123,0.704l0.028,0.274l0.123,0.703l0.063,0.214l0.122,0.795l0.028,0.153l0.183,0.824l0.031,0.123l0.183,0.855v0.061    l0.215,0.916v0.031l0.213,0.917v0.03l0.246,0.887v0.092l0.215,0.825l0.059,0.152l0.246,0.948l0.214,0.702l0.091,0.245l0.274,0.947    l0.187,0.61l0.122,0.367l0.183,0.55l0.123,0.367l0.183,0.52l0.15,0.428l0.155,0.458l0.182,0.459    c1.011,2.781,2.169,5.501,3.453,8.099l0.032,0.03l0.396,0.795l0.031,0.091l0.397,0.734l0.059,0.122    c3.822,7.212,8.684,13.782,14.396,19.497c14.606,14.608,34.807,23.654,57.117,23.654c22.31,0,42.511-9.046,57.148-23.654    c14.606-14.607,23.654-34.839,23.654-57.148C474.447,316.785,465.399,296.585,450.793,281.977z M115.695,356.575h43.304    c2.081,0,3.762,1.681,3.762,3.759v6.57l2.657-1.528c1.772-1.038,4.064-0.427,5.103,1.345c1.039,1.804,0.428,4.096-1.344,5.135    l-6.416,3.697v28.086c0,2.077-1.681,3.759-3.762,3.759h-43.304c-2.078,0-3.758-1.682-3.758-3.759v-43.305    C111.937,358.256,113.618,356.575,115.695,356.575z M115.695,110.654h43.304c2.081,0,3.762,1.681,3.762,3.76v43.303    c0,2.049-1.681,3.76-3.762,3.76h-43.304c-2.078,0-3.758-1.711-3.758-3.76v-43.303    C111.937,112.335,113.618,110.654,115.695,110.654z M115.695,192.617h43.304c2.081,0,3.762,1.682,3.762,3.759v10.85l2.657-1.528    c1.772-1.039,4.064-0.428,5.103,1.376c1.039,1.772,0.428,4.095-1.344,5.103l-6.416,3.698v23.807c0,2.079-1.681,3.759-3.762,3.759    h-43.304c-2.078,0-3.758-1.68-3.758-3.759v-43.305C111.937,194.299,113.618,192.617,115.695,192.617z M115.695,274.611h43.304    c2.081,0,3.762,1.682,3.762,3.76v43.304c0,2.077-1.681,3.759-3.762,3.759h-43.304c-2.078,0-3.758-1.682-3.758-3.759v-43.304    C111.937,276.293,113.618,274.611,115.695,274.611z M383.133,426.803c-0.979-0.122-1.957-0.244-2.934-0.397l-0.063-0.03    c-18.977-2.903-35.969-11.857-48.926-24.814c-8.438-8.436-15.158-18.52-19.622-29.767l-0.123-0.306l-0.242-0.642l-0.368-0.948l0,0    l-0.151-0.427l-0.214-0.55l-0.337-0.947l-0.183-0.551l-0.154-0.428l-0.183-0.581l-0.122-0.396l-0.215-0.643l-0.091-0.336    l-0.306-1.008l-0.214-0.733l-0.06-0.245l-0.246-0.825l-0.031-0.183l-0.273-0.979l-0.215-0.947l-0.031-0.062l-0.246-1.008l0,0    l-0.21-1.009l-0.032-0.062l-0.182-0.979l-0.032-0.091l-0.183-0.917l-0.368-2.078l-0.06-0.275l-0.123-0.764l-0.031-0.336    l-0.123-0.672l-0.06-0.428l-0.06-0.643l-0.063-0.458l-0.091-0.581l-0.061-0.52l-0.063-0.52l-0.06-0.58l-0.032-0.489l-0.06-0.642    l-0.031-0.398l-0.063-0.702l-0.028-0.367l-0.063-0.763l-0.028-0.307l-0.031-0.824v-0.245l-0.06-0.886v-0.184l-0.032-0.947v-0.123    v-1.008l-0.031-0.061v-1.102v-1.008l0.031-0.123v-0.886v-0.245l0.032-1.129l0.027-0.612l0.032-0.52l0.031-0.489l0.028-0.642    l0.031-0.366l0.06-0.765v-0.214l0.095-0.917v-0.091l0.092-0.979v-0.031l0.122-0.946v-0.184l0.092-0.795l0.06-0.306l0.091-0.702    l0.032-0.397l0.091-0.551l0.092-0.549l0.063-0.429l0.092-0.673l0.06-0.305l0.123-0.764l0.06-0.184l0.154-0.979l0.214-0.947v-0.061    l0.183-0.887l0.031-0.184l0.184-0.795l0.059-0.273l0.154-0.643l0.246-0.947l0.123-0.551l0.119-0.397l0.154-0.642l0.092-0.305    l0.214-0.765l0.031-0.152l0.274-0.886v-0.031l0.305-0.917v-0.093l0.277-0.824l0.06-0.214l0.246-0.702l0.091-0.337l0.215-0.581    c4.428-12.743,11.672-24.203,21.025-33.523c11.854-11.858,27.075-20.354,44.128-23.961v-12.683h-5.012    c-2.077,0-3.759-1.681-3.759-3.759V221.07c0-2.079,1.682-3.76,3.759-3.76h12.806V72.76h-44.009h-0.091H85.412v329.076v42.906    h297.721V426.803z M404.464,240.017h-21.64v11.43c1.621-0.214,3.24-0.336,4.861-0.458l0,0h0.123l0.701-0.062h0.031h0.184h0.031    l0.242-0.03h0.063h0.061h0.091h0.032h0.122h0.032l0.305-0.029h0.028h0.095h0.06h0.06h0.246h0.031h0.092l0.245-0.031h0.028h0.091    h0.063h0.06h0.091h0.031h0.092h0.063h0.06l0.246-0.031h0.027h0.092h0.094h0.029h0.122h0.032h0.091h0.06h0.063h0.122l0,0h0.092    h0.06h0.063h0.119l0,0h0.123h0.063h0.061h0.091h0.032h0.122h0.028l0.095-0.03h0.06h0.06h0.123l0,0h0.091h0.096h0.027h0.123h0.123    h0.123h0.122h0.12l0.213,0.03h0.123h0.123h0.123h0.06h0.032h0.122h0.123h0.119h0.123h0.122h0.123h0.092h0.123h0.123h0.059h0.063    l0.12,0.031h0.122h0.091h0.123h0.123h0.123h0.123h0.119l0.123,0.031l0,0h0.091h0.123h0.123h0.122h0.123l0.123,0.029h0.092h0.123    h0.119h0.094h0.028c2.109,0.123,4.188,0.275,6.236,0.55V240.017z M408.314,232.5h4.92v-7.702h-26.251h-0.091h-12.807v7.702h4.889    h0.123h0.091h29.034H408.314z M394.287,271.739c-0.154-0.153-0.396-0.245-0.643-0.245s-0.488,0.092-0.643,0.245    c-0.15,0.153-0.242,0.366-0.242,0.642c0,0.244,0.092,0.459,0.242,0.611c0.183,0.152,0.396,0.244,0.643,0.244    s0.488-0.092,0.643-0.244c0.15-0.152,0.245-0.367,0.245-0.611c0-0.215-0.063-0.428-0.187-0.551L394.287,271.739z M460.999,339.736    c0.186-0.153,0.277-0.396,0.277-0.643c0-0.244-0.123-0.458-0.277-0.611c-0.151-0.152-0.365-0.243-0.611-0.243    c-0.214,0-0.396,0.06-0.551,0.152l-0.06,0.091c-0.183,0.153-0.273,0.367-0.273,0.611c0,0.246,0.091,0.489,0.273,0.643    c0.123,0.152,0.368,0.244,0.61,0.244C460.634,339.98,460.848,339.889,460.999,339.736z M393.033,406.48    c0.151,0.152,0.365,0.245,0.611,0.245s0.488-0.093,0.643-0.245c0.15-0.152,0.245-0.397,0.245-0.643    c0-0.244-0.095-0.488-0.245-0.641c-0.154-0.153-0.396-0.245-0.643-0.245s-0.46,0.092-0.611,0.245    c-0.182,0.183-0.273,0.396-0.273,0.641C392.76,406.083,392.852,406.328,393.033,406.48z M326.29,338.482    c-0.154,0.153-0.245,0.367-0.245,0.611c0,0.246,0.091,0.489,0.245,0.643c0.151,0.152,0.365,0.244,0.61,0.244    c0.246,0,0.488-0.092,0.643-0.244c0.15-0.153,0.242-0.396,0.242-0.643c0-0.244-0.092-0.458-0.242-0.611    c-0.154-0.152-0.396-0.243-0.643-0.243c-0.182,0-0.396,0.06-0.551,0.152L326.29,338.482z M81.653,65.271h253.621v-39.27H37.553    v371.982h13.937V184.488c0-2.078,1.681-3.758,3.759-3.758c2.077,0,3.758,1.68,3.758,3.758v213.496h18.888V69    C77.895,66.953,79.576,65.271,81.653,65.271z M361.402,318.068c-1.617-1.313-1.863-3.667-0.578-5.287    c1.28-1.589,3.667-1.863,5.253-0.549l28.88,23.104h36.828c2.078,0,3.759,1.711,3.759,3.758c0,2.078-1.681,3.76-3.759,3.76h-38.141    c-0.824,0-1.649-0.275-2.352-0.825L361.402,318.068z M178.466,132.139c-2.078,0-3.759-1.682-3.759-3.759    c0-2.079,1.681-3.76,3.759-3.76h113.687c2.077,0,3.758,1.681,3.758,3.76c0,2.077-1.681,3.759-3.758,3.759H178.466z     M178.466,147.48c-2.078,0-3.759-1.682-3.759-3.76s1.681-3.759,3.759-3.759h71.454c2.046,0,3.759,1.681,3.759,3.759    s-1.713,3.76-3.759,3.76H178.466z M178.466,214.133c-2.078,0-3.759-1.712-3.759-3.76c0-2.078,1.681-3.759,3.759-3.759h113.687    c2.077,0,3.758,1.681,3.758,3.759c0,2.048-1.681,3.76-3.758,3.76H178.466z M178.466,229.474c-2.078,0-3.759-1.711-3.759-3.759    c0-2.078,1.681-3.759,3.759-3.759h71.454c2.046,0,3.759,1.681,3.759,3.759c0,2.048-1.713,3.759-3.759,3.759H178.466z     M178.466,296.096c-2.078,0-3.759-1.681-3.759-3.76c0-2.077,1.681-3.758,3.759-3.758h113.687c2.077,0,3.758,1.681,3.758,3.758    c0,2.079-1.681,3.76-3.758,3.76H178.466z M178.466,311.438c-2.078,0-3.759-1.682-3.759-3.76s1.681-3.759,3.759-3.759h71.454    c2.046,0,3.759,1.681,3.759,3.759s-1.713,3.76-3.759,3.76H178.466z M178.466,378.09c-2.078,0-3.759-1.682-3.759-3.76    s1.681-3.758,3.759-3.758h113.687c2.077,0,3.758,1.68,3.758,3.758s-1.681,3.76-3.758,3.76H178.466z M178.466,393.432    c-2.078,0-3.759-1.713-3.759-3.76c0-2.078,1.681-3.759,3.759-3.759h71.454c2.046,0,3.759,1.681,3.759,3.759    c0,2.047-1.713,3.76-3.759,3.76H178.466z M390.802,80.338c0-2.078,1.681-3.758,3.759-3.758c2.049,0,3.758,1.68,3.758,3.758    v111.363c0,2.078-1.709,3.76-3.758,3.76c-2.078,0-3.759-1.682-3.759-3.76V80.338z M51.061,472.247    c-2.078,0-3.759-1.682-3.759-3.759c0-2.079,1.681-3.759,3.759-3.759h226.026c2.046,0,3.759,1.68,3.759,3.759    c0,2.077-1.713,3.759-3.759,3.759H51.061z M183.418,485.999c-2.078,0-3.759-1.681-3.759-3.759s1.681-3.759,3.759-3.759h156.379    c2.078,0,3.759,1.681,3.759,3.759s-1.681,3.759-3.759,3.759H183.418z M355.813,485.999c-2.082,0-3.76-1.681-3.76-3.759    s1.678-3.759,3.76-3.759h19.559c2.077,0,3.758,1.681,3.758,3.759s-1.681,3.759-3.758,3.759H355.813z M42.168,485.571    c-2.078,0-3.759-1.681-3.759-3.76c0-2.077,1.681-3.759,3.759-3.759h74.11c2.078,0,3.759,1.682,3.759,3.759    c0,2.079-1.681,3.76-3.759,3.76H42.168z M155.241,118.142h-35.787v35.817h35.787V118.142z" style="fill-rule:evenodd;clip-rule:evenodd;"/></g></g><g id="Layer_1"/></svg>