<?xml version="1.0" ?><svg height="256" viewBox="0 0 256 256" width="256" xmlns="http://www.w3.org/2000/svg"><title/><g id="pilates-pose-yoga"><path d="M209.3,106.356l-.64-.24c-5.31-2.02-20.462,1.31-22.972,1.88-2.33.08-25.612.89-46.684.66,1.25-2.42,2.41-4.519,3.16-5.849a11.046,11.046,0,0,0,3.12.44,14.281,14.281,0,0,0,6.4-1.64c9.231-4.569,10.351-27.155,10.491-32.1a10.509,10.509,0,0,0,.89-1.46,2,2,0,0,0,.17-1.34c-.14-.59-3.38-14.477-16.231-19.256-7.131-2.66-16.642-1.5-23.652,2.779a12.009,12.009,0,0,0-4.24-4.089,4.49,4.49,0,0,0-.06-.88c-.33-2.01-1.94-3.739-4.8-5.159-3.04-1.5-6.6-.1-9.291,3.669-3.67,5.129-4.86,13.028-.49,17.367,1.51,1.5,2.96,2.25,4.32,2.25a3.634,3.634,0,0,0,1.44-.29,4.7,4.7,0,0,0,2.3-2.33,9.246,9.246,0,0,0,2.01,1.25,12.934,12.934,0,0,0-.18,2.16c0,7.919,1.27,18.5,7.331,23.926a12.784,12.784,0,0,0,4.16,2.53,20.4,20.4,0,0,1-.91,7.069,8.935,8.935,0,0,1-1.61,2.969c-7.441-16.6-29.053-45.282-32.033-49.191-.09-.52-.26-1.39-.5-2.45a13.865,13.865,0,0,0,5.05,1.33c.15,0,.29,0,.43-.01a3.762,3.762,0,0,0,2.93-1.91c1.89-3.159.65-9.538-.79-12.848-1.28-2.979-.03-8.648.56-10.588a2.078,2.078,0,0,0,.09-.6c-.12-15.757-1.89-16.087-3.31-16.357-1.35-.25-2.43.56-3.18,2.43-.91,2.29-1.92,5.479-2.98,8.858-1.67,5.319-3.74,11.928-5.23,13.678-.22.26-.9.99-2.85,2.919-5.4-1.57-13.011-.53-13.361-.48a2.024,2.024,0,0,0-1.66,1.5L65,42.9a2.016,2.016,0,0,0,.67,2.02l3.62,2.989C57.772,59.1,43.171,73.382,41.27,75.242c-1.3.84-2.98,4.309,2.82,32.124,2.46,11.838,6.641,20.7,12.1,25.715a36.43,36.43,0,0,0-.29,9.148c-2.51,15.8,6.621,36.183,8.811,40.762-1.14,2.61-3.49,10.048.33,21.436,3.87,11.518,1.92,25.605,1.5,28.265-1.22,1.68-4.6,6.569-4.6,9.718a4.929,4.929,0,0,0,1.97,4.249c2.91,2.1,7.841.73,12.641-.86,3.06-1.01,8.481.94,10.3,1.77a1.866,1.866,0,0,0,.72.18c3.04.17,5.511.25,7.541.25,8.651,0,9.021-1.38,9.321-2.54.25-.92.07-2.25-2.17-3.349-2.21-1.1-5.34-2.369-8.651-3.7-5.09-2.06-11.411-4.609-13.191-6.239-1.34-2.9-.07-23.116,1.96-41.282.51-1.46,2.9-8.928,6-29.884a58.614,58.614,0,0,0,.41-15.047c3.9-.08,7.291-.43,10.321-.73a56.247,56.247,0,0,1,12.521-.35c11.151,1.3,16.2-4.539,18.772-10.958a.7.7,0,0,0,.14-.03c16.3-5.039,48.544-13.128,51.645-13.907h2.15l5.49,3.659a1.685,1.685,0,0,0,.56.26l7,2a2,2,0,0,0,2.32-2.859l-1.05-1.98,7.441-.81c3.66-.4,8.271-2.969,9.741-7.679C216.916,109.156,212.146,107.406,209.3,106.356Zm-80.567-7.389a23.757,23.757,0,0,0,1.15-7.479c.37.03.74.04,1.12.04a18.144,18.144,0,0,0,2.05-.12,2,2,0,0,0,1.41-3.139c-2.89-4.109-4.88-8.888-4.18-10.038.08-.14.65-.43,2.27-.2,4.04.58,7.1-.17,9.1-2.22a7.977,7.977,0,0,0,2.07-4.209c3.49,1.3,9.571,2.969,14.3,1.11-.64,9.8-3.09,22.826-8.121,25.315-3.26,1.62-5.761,1.39-7.531.6a.437.437,0,0,0-.07-.04,1.322,1.322,0,0,0-.39-.17,7.9,7.9,0,0,1-2.88-2.6,2,2,0,1,0-3.42,2.07,11.058,11.058,0,0,0,2.95,3.149c-1.08,1.92-2.88,5.2-4.62,8.778-2,4.1-3.91,8.588-4.57,11.888-.1.48-.19.99-.3,1.54-.21.4-.41.74-.59,1.04-.12-1.07-.2-2.35-.27-3.419-.31-4.459-.64-9.508-2.43-12.738a19.193,19.193,0,0,0-.87-3.459A11.627,11.627,0,0,0,128.728,98.967ZM77.684,58.795l2.73,1.01c6.491,15.137,13.841,32.894,19.9,50.981a50.354,50.354,0,0,0-8.751,6.819,37.259,37.259,0,0,0-10.741-2.51C78.5,101,66.083,86.1,61.1,80.611c3.28-1.9,8.471-6.039,12.581-14.647A66.527,66.527,0,0,1,77.684,58.795Zm9.731-23.2c1.87-2.21,3.59-7.4,6-15.067.45-1.45.9-2.859,1.33-4.169.17,2.35.29,5.179.32,7.769-.49,1.69-2.26,8.558-.32,13.048,1.62,3.739,1.68,8.218,1.05,9.188-1.01-.01-3.38-.81-6.651-2.64a15.041,15.041,0,0,0-3.87-5.9C86.745,36.359,87.2,35.849,87.415,35.6ZM69.193,42.638l.85-3.379c2.9-.27,8.141-.44,11.231.81.01,0,.02.01.04.02a4.825,4.825,0,0,1,.99.5c.85.56,2.11,1.91,3.36,5.219a.076.076,0,0,0,.02.05,36.551,36.551,0,0,1,1.73,6.719,2.08,2.08,0,0,0,.39.93c.27.34,26.442,34.654,32.783,50.981.01.02.01.04.02.05a18.4,18.4,0,0,1,1.25,4.409l.03.3a5.057,5.057,0,0,1-1.31,4.4c-1.3,1.22-3.66,1.84-6.781,1.84a33.258,33.258,0,0,1-5.931-.6,3.6,3.6,0,0,1-2.68-2.15l-.17-.54c-.12-.36-.24-.71-.35-1.04,0-.02-.01-.03-.01-.04-6.311-19.056-14.111-37.833-20.912-53.68a1.958,1.958,0,0,0-1.14-1.08l-4.86-1.81c-.1-.04-.2-.08-.29-.11l-1.31-.46,1.42-2.03a1.992,1.992,0,0,0-.37-2.69l-3.78-3.119ZM48,106.546c-4.63-22.2-4.13-27.445-3.91-28.465,1.99-1.96,16.782-16.407,28.3-27.6l.84.69-1.88,2.69a2,2,0,0,0,.98,3.029l1.48.52a71,71,0,0,0-3.74,6.829C65.063,74.722,58.422,77.621,57.1,78.111c-.03.01-.07.02-.1.03a1.355,1.355,0,0,0-.14.05,1.992,1.992,0,0,0,.17,3.889c3.56,3.789,17.132,18.977,19.742,33.054-6.591.5-15.741,3.139-19.422,13.418C54.122,124.873,50.451,118.284,48,106.546Zm36.433,53.88c-3.35,22.566-5.851,29.215-5.871,29.275a1.738,1.738,0,0,0-.13.51c-.01.1-1.14,10.178-1.88,20.5-1.57,21.706.01,23.276.96,24.216,2.05,2.03,7.111,4.169,14.6,7.2,1.56.63,3.08,1.24,4.47,1.82-2.49.05-5.59-.01-8.421-.16-1.72-.75-8.221-3.319-12.871-1.78-1.86.62-7.541,2.5-9.041,1.42-.07-.06-.31-.23-.31-1.01,0-1.41,2.13-5.1,4.09-7.709a1.825,1.825,0,0,0,.37-.84c.13-.69,3.04-17.007-1.56-30.7-3.89-11.558-.72-18.147-.24-19.037a2,2,0,0,0,.13-2.02c-.12-.22-11-22.046-9.031-38.233a1.959,1.959,0,0,0,.25-1.18c-.01-.1-.02-.21-.03-.29a19.612,19.612,0,0,1,2.71-7.339c3.18-4.949,7.3-7.339,11.321-6.549,4.92.97,8.911,6.619,10.411,14.747.06.33.12.67.17,1A53.2,53.2,0,0,1,84.434,160.426Zm121.241-44.152-10.381,1.14a2,2,0,0,0-1.55,2.919l.23.44-2.18-.63-5.741-3.819a1.99,1.99,0,0,0-1.11-.34h-3a1.972,1.972,0,0,0-.48.06c-.33.09-31.773,7.929-49.575,13.258.44-1.73.75-3.389,1.02-4.839.02-.09.03-.17.05-.25.11-.61.22-1.18.33-1.72a48.6,48.6,0,0,1,3.73-9.858c22.682.31,48.735-.64,49-.65a2.354,2.354,0,0,0,.37-.05c6.331-1.46,17.582-3.319,20.832-2.08l.7.26a20.091,20.091,0,0,1,3.92,1.77A7.8,7.8,0,0,1,205.675,116.274Z"/></g></svg>